<svg xmlns="http://www.w3.org/2000/svg" viewBox="0 0 500 500"><g id="freepik--background-complete--inject-32"><rect y="382.4" width="500" height="0.25" style="fill:#ebebeb"></rect><path d="M237,337.8H43.91a5.71,5.71,0,0,1-5.7-5.71V60.66A5.71,5.71,0,0,1,43.91,55H237a5.71,5.71,0,0,1,5.71,5.71V332.09A5.71,5.71,0,0,1,237,337.8ZM43.91,55.2a5.46,5.46,0,0,0-5.45,5.46V332.09a5.46,5.46,0,0,0,5.45,5.46H237a5.47,5.47,0,0,0,5.46-5.46V60.66A5.47,5.47,0,0,0,237,55.2Z" style="fill:#ebebeb"></path><path d="M453.31,337.8H260.21a5.72,5.72,0,0,1-5.71-5.71V60.66A5.72,5.72,0,0,1,260.21,55h193.1A5.71,5.71,0,0,1,459,60.66V332.09A5.71,5.71,0,0,1,453.31,337.8ZM260.21,55.2a5.47,5.47,0,0,0-5.46,5.46V332.09a5.47,5.47,0,0,0,5.46,5.46h193.1a5.47,5.47,0,0,0,5.46-5.46V60.66a5.47,5.47,0,0,0-5.46-5.46Z" style="fill:#ebebeb"></path><rect x="423.9" y="398.49" width="26" height="0.25" style="fill:#ebebeb"></rect><rect x="311" y="401.21" width="45.03" height="0.25" style="fill:#ebebeb"></rect><rect x="362.11" y="389.21" width="60.79" height="0.25" style="fill:#ebebeb"></rect><rect x="52.46" y="390.89" width="19.23" height="0.25" style="fill:#ebebeb"></rect><rect x="80.6" y="390.89" width="55.29" height="0.25" style="fill:#ebebeb"></rect><rect x="169.67" y="395.11" width="74.47" height="0.25" style="fill:#ebebeb"></rect><rect x="378.6" y="229.22" width="8" height="148.05" transform="translate(765.19 606.5) rotate(180)" style="fill:#f0f0f0"></rect><rect x="340.19" y="377.28" width="44.29" height="5.11" transform="translate(724.68 759.66) rotate(180)" style="fill:#f0f0f0"></rect><rect x="338.08" y="229.22" width="40.52" height="148.05" style="fill:#f5f5f5"></rect><rect x="342.4" y="306.32" width="31.88" height="26.44" style="fill:#f0f0f0"></rect><rect x="342.4" y="340.92" width="31.88" height="26.44" style="fill:#f0f0f0"></rect><rect x="352.92" y="317.72" width="10.85" height="3.63" rx="1.18" transform="translate(716.68 639.07) rotate(180)" style="fill:#f5f5f5"></rect><rect x="352.92" y="352.32" width="10.85" height="3.63" rx="1.18" transform="translate(716.68 708.27) rotate(180)" style="fill:#f5f5f5"></rect><rect x="342.4" y="237.39" width="31.88" height="26.44" style="fill:#f0f0f0"></rect><rect x="342.4" y="271.71" width="31.88" height="26.44" style="fill:#f0f0f0"></rect><rect x="352.92" y="248.79" width="10.85" height="3.63" rx="1.18" transform="translate(716.68 501.21) rotate(-180)" style="fill:#f5f5f5"></rect><rect x="352.92" y="283.12" width="10.85" height="3.63" rx="1.18" transform="translate(716.68 569.87) rotate(-180)" style="fill:#f5f5f5"></rect><rect x="422.93" y="229.22" width="24" height="148.05" transform="translate(869.87 606.5) rotate(180)" style="fill:#f0f0f0"></rect><rect x="384.53" y="377.28" width="59.95" height="5.11" transform="translate(829 759.66) rotate(180)" style="fill:#f0f0f0"></rect><rect x="382.42" y="229.22" width="40.52" height="148.05" style="fill:#f5f5f5"></rect><rect x="386.74" y="306.32" width="31.88" height="26.44" style="fill:#f0f0f0"></rect><rect x="386.74" y="340.92" width="31.88" height="26.44" style="fill:#f0f0f0"></rect><rect x="397.25" y="317.72" width="10.85" height="3.63" rx="1.18" transform="translate(805.35 639.07) rotate(180)" style="fill:#f5f5f5"></rect><rect x="397.25" y="352.32" width="10.85" height="3.63" rx="1.18" transform="translate(805.35 708.27) rotate(180)" style="fill:#f5f5f5"></rect><rect x="386.74" y="237.39" width="31.88" height="26.44" style="fill:#f0f0f0"></rect><rect x="386.74" y="271.71" width="31.88" height="26.44" style="fill:#f0f0f0"></rect><rect x="397.25" y="248.79" width="10.85" height="3.63" rx="1.18" transform="translate(805.35 501.21) rotate(-180)" style="fill:#f5f5f5"></rect><rect x="397.25" y="283.12" width="10.85" height="3.63" rx="1.18" transform="translate(805.35 569.87) rotate(-180)" style="fill:#f5f5f5"></rect><rect x="292.63" y="80.06" width="134.71" height="118.26" transform="translate(719.97 278.38) rotate(180)" style="fill:#e6e6e6"></rect><path d="M278.19,75.46H436.06a1.34,1.34,0,0,1,1.34,1.34h0a1.34,1.34,0,0,1-1.34,1.33H278.19a1.34,1.34,0,0,1-1.33-1.33h0A1.34,1.34,0,0,1,278.19,75.46Z" style="fill:#e6e6e6"></path><rect x="286.91" y="80.06" width="137.76" height="118.26" transform="translate(711.59 278.38) rotate(180)" style="fill:#f0f0f0"></rect><polygon points="292.63 198.32 427.34 198.32 427.34 202.11 288.69 202.11 292.63 198.32" style="fill:#e6e6e6"></polygon><polygon points="277.39 198.32 415.15 198.32 411.21 202.11 273.45 202.11 277.39 198.32" style="fill:#f0f0f0"></polygon><rect x="304.66" y="78.31" width="102.26" height="121.75" transform="translate(494.98 -216.6) rotate(90)" style="fill:#fafafa"></rect><polygon points="389.03 190.32 342.06 88.06 319.89 88.06 366.86 190.32 389.03 190.32" style="fill:#fff"></polygon><polygon points="362.1 190.32 315.13 88.06 306.48 88.06 353.45 190.32 362.1 190.32" style="fill:#fff"></polygon><rect x="244.3" y="138.68" width="102.26" height="1.02" transform="translate(434.61 -156.24) rotate(90)" style="fill:#e6e6e6"></rect><g style="opacity:0.4"><rect x="416.58" y="73.07" width="13.77" height="97.59" transform="translate(846.92 243.72) rotate(180)" style="fill:#f0f0f0"></rect><rect x="411.21" y="73.07" width="10.73" height="97.59" transform="translate(833.15 243.72) rotate(180)" style="fill:#e6e6e6"></rect><rect x="402.8" y="73.07" width="13.77" height="97.59" transform="translate(819.38 243.72) rotate(180)" style="fill:#f0f0f0"></rect><rect x="397.44" y="73.07" width="10.73" height="97.59" transform="translate(805.61 243.72) rotate(180)" style="fill:#e6e6e6"></rect><rect x="389.03" y="73.07" width="13.77" height="97.59" transform="translate(791.83 243.72) rotate(180)" style="fill:#f0f0f0"></rect></g><g style="opacity:0.4"><rect x="300.04" y="73.07" width="7.94" height="97.59" transform="translate(608.02 243.72) rotate(180)" style="fill:#f0f0f0"></rect><rect x="296.95" y="73.07" width="6.18" height="97.59" transform="translate(600.08 243.72) rotate(180)" style="fill:#e6e6e6"></rect><rect x="292.11" y="73.07" width="7.94" height="97.59" transform="translate(592.15 243.72) rotate(180)" style="fill:#f0f0f0"></rect><rect x="289.01" y="73.07" width="6.18" height="97.59" transform="translate(584.21 243.72) rotate(180)" style="fill:#e6e6e6"></rect><rect x="284.17" y="73.07" width="7.94" height="97.59" transform="translate(576.27 243.72) rotate(180)" style="fill:#f0f0f0"></rect></g><polygon points="164.22 151.7 183.28 151.7 181.03 103.36 164.22 103.36 164.22 151.7" style="fill:#f5f5f5"></polygon><polygon points="194.05 154.31 198.16 175.78 194.05 175.78 168.84 154.31 194.05 154.31" style="fill:#f5f5f5"></polygon><polygon points="198.16 154.31 198.16 175.78 172.95 154.31 198.16 154.31" style="fill:#e6e6e6"></polygon><polygon points="95.18 154.31 99.29 175.78 95.18 175.78 69.97 154.31 95.18 154.31" style="fill:#f5f5f5"></polygon><polygon points="99.29 154.31 99.29 175.78 74.08 154.31 99.29 154.31" style="fill:#e6e6e6"></polygon><rect x="189.25" y="151.77" width="27.42" height="3.1" style="fill:#e6e6e6"></rect><rect x="52.93" y="151.77" width="136.32" height="3.1" transform="translate(242.18 306.64) rotate(180)" style="fill:#f5f5f5"></rect><polygon points="136.21 151.7 177.13 151.7 182.19 93.12 141.27 93.12 136.21 151.7" style="fill:#e6e6e6"></polygon><polygon points="134.09 151.7 175.01 151.7 180.07 93.12 139.15 93.12 134.09 151.7" style="fill:#f0f0f0"></polygon><polygon points="171.58 145.21 176.21 99.6 142.59 99.6 137.96 145.21 171.58 145.21" style="fill:#fff"></polygon><polygon points="117.89 151.7 131.02 151.7 129.47 118.41 117.89 118.41 117.89 151.7" style="fill:#e0e0e0"></polygon><polygon points="98.61 151.7 126.78 151.7 130.27 111.36 102.09 111.36 98.61 151.7" style="fill:#f0f0f0"></polygon><polygon points="97.15 151.7 125.33 151.7 128.81 111.36 100.63 111.36 97.15 151.7" style="fill:#f5f5f5"></polygon><polygon points="122.96 147.23 126.14 115.83 103 115.83 99.81 147.23 122.96 147.23" style="fill:#e0e0e0"></polygon><path d="M262.36,236.44a5.67,5.67,0,1,1-6.11-5.18A5.66,5.66,0,0,1,262.36,236.44Z" style="fill:#e0e0e0"></path><path d="M272.89,239.4a5.67,5.67,0,1,1-6.11-5.18A5.67,5.67,0,0,1,272.89,239.4Z" style="fill:#e0e0e0"></path><path d="M280.5,236a5.67,5.67,0,1,1-6.11-5.19A5.68,5.68,0,0,1,280.5,236Z" style="fill:#e0e0e0"></path><path d="M288.53,238.12a5.66,5.66,0,1,1-6.11-5.19A5.66,5.66,0,0,1,288.53,238.12Z" style="fill:#e0e0e0"></path><path d="M295.74,239s-.66,15.74-25.94,15.74-26-15.74-26-15.74Z" style="fill:#f0f0f0"></path><rect x="59.88" y="254.77" width="9.19" height="127.63" transform="translate(128.95 637.17) rotate(180)" style="fill:#e6e6e6"></rect><rect x="57.42" y="254.77" width="5.41" height="127.63" transform="translate(120.26 637.17) rotate(180)" style="fill:#f0f0f0"></rect><rect x="55.75" y="254.77" width="130.46" height="9.57" style="fill:#f0f0f0"></rect><rect x="309.76" y="254.77" width="9.19" height="127.63" transform="translate(628.71 637.17) rotate(180)" style="fill:#e6e6e6"></rect><rect x="308.04" y="254.77" width="5.41" height="127.63" transform="translate(621.49 637.17) rotate(180)" style="fill:#f0f0f0"></rect><rect x="190.13" y="254.77" width="130.46" height="9.57" style="fill:#e6e6e6"></rect><rect x="186.99" y="254.77" width="9.19" height="127.63" transform="translate(383.16 637.17) rotate(180)" style="fill:#e6e6e6"></rect><rect x="184.53" y="254.77" width="5.41" height="127.63" transform="translate(374.47 637.17) rotate(180)" style="fill:#f0f0f0"></rect><polygon points="217.14 212.32 149.03 212.32 136.89 252.54 205.01 252.54 217.14 212.32" style="fill:#e6e6e6"></polygon><polygon points="205.01 252.54 204.74 254.77 136.62 254.77 136.89 252.54 205.01 252.54" style="fill:#e6e6e6"></polygon><polygon points="215.05 212.32 146.93 212.32 134.8 252.54 202.91 252.54 215.05 212.32" style="fill:#f0f0f0"></polygon><polygon points="201.58 250.71 212.6 214.16 148.27 214.16 137.24 250.71 201.58 250.71" style="fill:#fff"></polygon><polygon points="185.17 252.54 184.89 254.77 109.88 254.77 110.15 252.54 185.17 252.54" style="fill:#f0f0f0"></polygon></g><g id="freepik--Shadow--inject-32"><ellipse id="freepik--path--inject-32" cx="250" cy="416.24" rx="193.89" ry="11.32" style="fill:#f5f5f5"></ellipse></g><g id="freepik--Smartphone--inject-32"><path d="M377.55,109.15H262.46a15.87,15.87,0,0,0-15.56,14.62L229,399.33a13.56,13.56,0,0,0,13.67,14.61H357.8a15.86,15.86,0,0,0,15.56-14.61L386.2,201.27a3,3,0,0,0,2-2.57l2.3-35.44a2.54,2.54,0,0,0-1.66-2.57l2.39-36.92A13.57,13.57,0,0,0,377.55,109.15Z" style="fill:#407BFF"></path><path d="M237.58,180.5h2.26a2.82,2.82,0,0,0,2.76-2.59l1-14.8a2.41,2.41,0,0,0-2.43-2.59h-2.25a2.81,2.81,0,0,0-2.76,2.59l-1,14.8A2.41,2.41,0,0,0,237.58,180.5Z" style="fill:#407BFF"></path><path d="M235.87,206.92h2.25a2.83,2.83,0,0,0,2.77-2.6l1-14.79a2.41,2.41,0,0,0-2.43-2.59h-2.25a2.82,2.82,0,0,0-2.77,2.59l-1,14.79A2.4,2.4,0,0,0,235.87,206.92Z" style="fill:#407BFF"></path><path d="M351.68,413.94H236.59a13.56,13.56,0,0,1-13.67-14.61l17.86-275.56a15.88,15.88,0,0,1,15.57-14.62H371.43a13.57,13.57,0,0,1,13.67,14.62L367.24,399.33A15.86,15.86,0,0,1,351.68,413.94Z" style="fill:#263238"></path><ellipse cx="295.34" cy="395.36" rx="10.16" ry="9.52" transform="translate(-191.85 316.74) rotate(-44.07)" style="fill:#fff;opacity:0.2"></ellipse><path d="M362.08,378.17H231.25A3.26,3.26,0,0,1,228,374.7l15.31-236.32a3.27,3.27,0,0,1,3.25-3H377.4a3.26,3.26,0,0,1,3.25,3.47L365.33,375.12A3.26,3.26,0,0,1,362.08,378.17Z" style="fill:#fff"></path><ellipse cx="301.54" cy="260.18" rx="36.88" ry="34.56" transform="translate(-96.08 282.99) rotate(-44.07)" style="fill:#407BFF;opacity:0.2"></ellipse><path d="M298,315.26c-30.37,0-53.48-24.71-51.51-55.08s28.27-55.08,58.65-55.08,53.48,24.71,51.51,55.08S328.34,315.26,298,315.26ZM305,206.1c-29.82,0-55.65,24.26-57.58,54.08s20.75,54.08,50.57,54.08,55.65-24.26,57.59-54.08S334.86,206.1,305,206.1Z" style="fill:#407BFF;opacity:0.2"></path><path d="M293,277.49l-3-5.79c-6.5-12.61-21.47-23.88-26.7-27.16l4.94-7.39c6.19,3.88,18.56,13.49,26.32,24.91,14.35-17,34.63-34.51,61.78-53.4l4.63,7c-29,20.18-49.87,38.63-63.75,56.41Z" style="fill:#407BFF"></path><ellipse cx="288.9" cy="122.1" rx="4.11" ry="3.86" transform="translate(-3.6 235.32) rotate(-44.07)" style="fill:#fff;opacity:0.2"></ellipse><path d="M302.91,118.12H336a3.69,3.69,0,0,1,3.72,4h0a4.33,4.33,0,0,1-4.24,4H302.4a3.71,3.71,0,0,1-3.73-4h0A4.33,4.33,0,0,1,302.91,118.12Z" style="fill:#fff;opacity:0.2"></path></g><g id="freepik--Character--inject-32"><path d="M179.74,192c-1.69,1.73-3.5,3.64-5.17,5.54s-3.34,3.85-4.91,5.85-3,4-4.48,6.11l-1,1.57-1,1.59c-.33.53-.63,1.07-.92,1.62l-.8,1.47a8.23,8.23,0,0,0-.55,2.63,25.24,25.24,0,0,0,0,3.48,68.16,68.16,0,0,0,1,7.45c.44,2.52,1,5.05,1.59,7.57s1.24,5.07,1.9,7.55l-3.7,1.39A108.38,108.38,0,0,1,156,230.7a61.64,61.64,0,0,1-1.77-8.13,33,33,0,0,1-.31-4.42,14.31,14.31,0,0,1,.87-5.11c.23-.56.35-.78.51-1.12l.46-.95c.3-.63.61-1.26,1-1.87l1-1.84,1.06-1.79a76.28,76.28,0,0,1,4.61-6.83c1.64-2.19,3.34-4.32,5.13-6.38s3.6-4,5.68-6Z" style="fill:#b55b52"></path><path d="M180.17,180c-5.42.24-10.57,9.24-10.57,9.24l7.16,14.61s9.7-8.08,9.82-16C186.66,182.66,185.5,179.75,180.17,180Z" style="fill:#407BFF"></path><path d="M180.17,180c-5.42.24-10.57,9.24-10.57,9.24l7.16,14.61s9.7-8.08,9.82-16C186.66,182.66,185.5,179.75,180.17,180Z" style="fill:#fff;opacity:0.7000000000000001"></path><path d="M181.46,190.5c-1.58,2.39-2.34,8.59-2.58,11.35a33.13,33.13,0,0,0,6-7.91C183.81,191.27,182.5,188.93,181.46,190.5Z" style="opacity:0.2"></path><path d="M164.33,242.91l6.59,2-4.39,4.44s-4.75-1.47-5.41-4.7Z" style="fill:#b55b52"></path><polygon points="174.91 249.94 173.8 254.19 166.53 249.31 170.92 244.87 174.91 249.94" style="fill:#b55b52"></polygon><path d="M218.27,162.65c-.21.59-.06,1.19.33,1.33s.87-.21,1.07-.8.06-1.2-.33-1.34S218.48,162.05,218.27,162.65Z" style="fill:#263238"></path><path d="M219.16,161.81l1.57.13S219.61,162.77,219.16,161.81Z" style="fill:#263238"></path><path d="M218.57,163.41a17.28,17.28,0,0,0,.8,4.58,2.73,2.73,0,0,1-2.25-.4Z" style="fill:#a02724"></path><path d="M220.21,160.34a.36.36,0,0,1-.3-.27A3.07,3.07,0,0,0,218.2,158a.37.37,0,0,1-.22-.47.36.36,0,0,1,.47-.22,3.78,3.78,0,0,1,2.18,2.63.37.37,0,0,1-.27.45Z" style="fill:#263238"></path><path d="M197.73,165.16c.14,4.73-.34,13.24-4,15.65,0,0,.49,4.86,9,6.51,9.35,1.81,5.23-3.75,5.23-3.75-4.9-2.2-4.15-5.94-2.68-9.3Z" style="fill:#b55b52"></path><path d="M225.52,197.53c.84,2.29,1.8,4.77,2.82,7.12s2,4.73,3.19,7,2.35,4.55,3.61,6.76c.65,1.09,1.3,2.18,2,3.22.34.54.69,1.06,1.06,1.55l.54.76.27.39.14.19.09.1a11,11,0,0,0,2.22,1.93,32.2,32.2,0,0,0,3.08,1.86c2.19,1.18,4.54,2.25,6.93,3.26s4.83,2,7.3,2.87,5,1.79,7.43,2.64l-.93,3.85a124.41,124.41,0,0,1-15.85-3.73,71.92,71.92,0,0,1-7.82-2.89,39.07,39.07,0,0,1-3.9-2,16.33,16.33,0,0,1-3.93-3.13l-.24-.27-.17-.21-.33-.41-.66-.84c-.45-.55-.88-1.11-1.28-1.68-.85-1.13-1.63-2.29-2.4-3.46a81.9,81.9,0,0,1-4.19-7.18c-1.27-2.45-2.47-4.92-3.57-7.44s-2.09-5-3-7.76Z" style="fill:#b55b52"></path><path d="M264.88,237.16l5.9-2.28-.29,6.81s-4.78,1.27-7-1.14Z" style="fill:#b55b52"></path><polygon points="275.23 237.22 277.25 241.57 270.49 241.69 270.78 234.88 275.23 237.22" style="fill:#b55b52"></polygon><polygon points="177.38 407.89 185.19 408.47 187.51 390.54 179.7 389.96 177.38 407.89" style="fill:#b55b52"></polygon><polygon points="115.52 367.33 120.62 373.39 135.76 363.66 130.66 357.6 115.52 367.33" style="fill:#b55b52"></polygon><path d="M123,372.61l-4.11-7.9a.62.62,0,0,0-.76-.32l-6.53,2.26a1.25,1.25,0,0,0-.63,1.76c1.48,2.73,2.33,4,4.13,7.45,1.12,2.13,2.53,5.37,4.06,8.32s4.45,1.64,4.07.27c-1.72-6.11-.58-7.8,0-10.45A2.14,2.14,0,0,0,123,372.61Z" style="fill:#263238"></path><path d="M185.68,407.36H176.9a.63.63,0,0,0-.63.53l-1.18,6.94a1.22,1.22,0,0,0,1.21,1.39c3.07-.05,4.54-.23,8.4-.23,2.38,0,7.28.25,10.56.25s3.54-3.24,2.18-3.54c-6.09-1.31-8.45-3.13-10.47-4.86A1.93,1.93,0,0,0,185.68,407.36Z" style="fill:#263238"></path><polygon points="187.51 390.54 186.22 400.51 178.44 399.73 179.7 389.97 187.51 390.54" style="opacity:0.2"></polygon><polygon points="130.66 357.6 135.76 363.66 129.49 367.69 124.2 361.75 130.66 357.6" style="opacity:0.2"></polygon><path d="M178,227.55l31.32,6.07c14.8-43.57,11.26-45,11.26-45a64.45,64.45,0,0,0-7.11-3.3l-.43-.16c-2-.73-2.42-.84-5.1-1.62-4.62-1.09-8.91-2-14.22-2.75l-1-.14c-1-.12-1.92-.22-2.84-.31-.62-.07-1.24-.11-1.83-.15l-2-.11c-3.42-.17-5.87-.12-5.87-.12C181.9,207.17,180.59,215,178,227.55Z" style="fill:#407BFF"></path><path d="M178,227.55l31.32,6.07c14.8-43.57,11.26-45,11.26-45a64.45,64.45,0,0,0-7.11-3.3l-.43-.16c-2-.73-2.42-.84-5.1-1.62-4.62-1.09-8.91-2-14.22-2.75l-1-.14c-1-.12-1.92-.22-2.84-.31-.62-.07-1.24-.11-1.83-.15l-2-.11c-3.42-.17-5.87-.12-5.87-.12C181.9,207.17,180.59,215,178,227.55Z" style="fill:#fff;opacity:0.7000000000000001"></path><path d="M216.08,198.79l-2.83-.46c0,3.73,1.42,10.13,2.8,14.2,1.17-4,2.08-7.29,2.77-10.06Z" style="opacity:0.2"></path><path d="M219.49,188.09c4.63,1.48,8,10.64,9.26,14.59l-9,10.57S210.53,200,212,195.89C213.44,191.61,217.25,187.36,219.49,188.09Z" style="fill:#407BFF"></path><path d="M219.49,188.09c4.63,1.48,8,10.64,9.26,14.59l-9,10.57S210.53,200,212,195.89C213.44,191.61,217.25,187.36,219.49,188.09Z" style="fill:#fff;opacity:0.7000000000000001"></path><path d="M222.49,154.27c-.93,2.73-5,3.82-9.05,2.45s-6.61-4.72-5.68-7.45,5-3.82,9-2.44S223.41,151.54,222.49,154.27Z" style="fill:#263238"></path><path d="M199,153.52c-2.08,7.44-3.12,10.54-.74,15.66,3.58,7.71,13.16,8.92,17.42,2.31,3.83-5.94,6.59-17.11.47-22.7A10.33,10.33,0,0,0,199,153.52Z" style="fill:#b55b52"></path><path d="M210.62,144.83c-3,1.72-9.37-9.05-17.28,0-5.66,6.49-2.05,16-2.05,16s-4.51-7.93-8.11-4.06c-4.7,5,.16,22.89,15.66,21.66s14-13.81,14-13.81,7.26-7.38,6.9-14C219.47,145.66,215.62,142,210.62,144.83Z" style="fill:#263238"></path><path d="M212.5,159.91a7,7,0,0,0,.14,4.21c.64,1.91,2.11,1.92,2.89.6s1.21-3.61.1-5.15S213,158.38,212.5,159.91Z" style="fill:#b55b52"></path><path d="M201,232s-3.34,11.58-7.63,26.86c-2.85,10.18-6.13,22-9.12,33.13-1.71,6.37-3.32,12.51-4.71,18-7.86,31.05-47.06,57.74-47.06,57.74l-7.59-8.35s26.34-22.18,34-51.15c15.47-58.81,6.77-68.73,19.1-80.68Z" style="fill:#263238"></path><path d="M197.62,242.38c-1.16,4.49-2.62,10.16-4.23,16.5-2.85,10.18-6.13,22-9.12,33.13-1.28-14.2-2-40.31,8.45-48.43C194.78,242,196.41,241.67,197.62,242.38Z" style="opacity:0.2"></path><polygon points="133.13 368.93 123.65 358.5 126.52 355.62 138.15 366.58 133.13 368.93" style="fill:#407BFF"></polygon><polygon points="133.13 368.93 123.65 358.5 126.52 355.62 138.15 366.58 133.13 368.93" style="fill:#fff;opacity:0.7000000000000001"></polygon><path d="M124.43,376.85a.92.92,0,0,1-.28-.05c-.93-.34-1.52-2.12-1.79-3.15a.18.18,0,0,1,.07-.19.17.17,0,0,1,.2,0c.28.16,2.74,1.6,2.79,2.61a.61.61,0,0,1-.28.56A1.11,1.11,0,0,1,124.43,376.85ZM122.84,374c.41,1.35.93,2.26,1.44,2.44a.68.68,0,0,0,.64-.13c.13-.09.14-.18.13-.24C125,375.55,123.81,374.61,122.84,374Z" style="fill:#407BFF"></path><path d="M208.82,233.62s2,61.82-2.42,85.11C201.86,343,188,398,188,398l-11.26-1.45s7.12-55.66,10.15-79.72c3.29-26.24-1-87.69-1-87.69Z" style="fill:#263238"></path><polygon points="190.42 398.69 174.37 396.62 174.56 392.8 192.03 393.56 190.42 398.69" style="fill:#407BFF"></polygon><polygon points="190.42 398.69 174.37 396.62 174.56 392.8 192.03 393.56 190.42 398.69" style="fill:#fff;opacity:0.7000000000000001"></polygon><path d="M124.81,374.43a5.46,5.46,0,0,1-2.37-.67.19.19,0,0,1-.09-.16.23.23,0,0,1,.1-.16c.09,0,2-1.05,3.1-.64a1,1,0,0,1,.6.6.66.66,0,0,1-.17.8A1.9,1.9,0,0,1,124.81,374.43Zm-1.87-.81c.87.4,2.39.62,2.81.29.07-.06.14-.15,0-.38a.6.6,0,0,0-.38-.38A4.15,4.15,0,0,0,122.94,373.62Z" style="fill:#407BFF"></path><path d="M188.58,408.72a13.33,13.33,0,0,1-2.45-.28.17.17,0,0,1-.15-.15.18.18,0,0,1,.1-.19c.36-.19,3.52-1.78,4.46-1.25a.58.58,0,0,1,.3.5,1,1,0,0,1-.36.89A3,3,0,0,1,188.58,408.72Zm-1.83-.54c1.72.29,3,.21,3.49-.21a.69.69,0,0,0,.23-.6.21.21,0,0,0-.11-.2C189.85,406.89,188.05,407.56,186.75,408.18Z" style="fill:#407BFF"></path><path d="M186.17,408.45a.21.21,0,0,1-.11,0,.19.19,0,0,1-.08-.17c0-.14.39-3.52,2.28-3.32.5.05.65.3.68.51.14.88-1.75,2.58-2.7,3Zm1.94-3.17c-1.12,0-1.57,1.85-1.71,2.65,1-.58,2.26-1.91,2.18-2.44,0,0,0-.17-.36-.2Z" style="fill:#407BFF"></path><path d="M177.8,225.64l-1.87,2.51c-.14.2.08.47.44.54l32.85,6.36c.28,0,.54,0,.58-.21l.75-2.74c0-.18-.17-.4-.48-.46l-31.72-6.14A.58.58,0,0,0,177.8,225.64Z" style="fill:#407BFF"></path><path d="M181.48,230l-.85-.17c-.17,0-.28-.14-.25-.24l1-3.55c0-.1.2-.16.36-.13l.85.17c.17,0,.29.14.26.24l-1,3.55C181.81,230,181.65,230,181.48,230Z" style="fill:#263238"></path><path d="M202.93,234.19l-.85-.16c-.17,0-.28-.15-.25-.25l1-3.54c0-.11.19-.17.36-.13l.85.16c.16,0,.28.15.25.25l-1,3.54C203.26,234.17,203.1,234.23,202.93,234.19Z" style="fill:#263238"></path></g></svg>